<svg width="44" height="41" viewBox="0 0 44 41" fill="none" xmlns="http://www.w3.org/2000/svg">
<path d="M11.4384 9.6H16.9384C21.1477 9.6 23.2524 12.0713 23.2524 17.014C23.2524 18.9207 23.0177 20.4607 22.5484 21.634C22.079 22.7927 21.3384 23.6433 20.3264 24.186C19.329 24.7287 18.0017 25 16.3444 25H11.4384V9.6ZM16.6744 22.47C17.5104 22.47 18.1777 22.2867 18.6764 21.92C19.175 21.5533 19.5344 20.974 19.7544 20.182C19.989 19.39 20.1064 18.334 20.1064 17.014C20.1064 15.2687 19.857 14.022 19.3584 13.274C18.8597 12.5113 18.0311 12.13 16.8724 12.13H14.6064V22.47H16.6744Z" fill="white"/>
<path d="M36.0637 18.6L32.8297 34H29.8157L26.9997 22.538L24.1837 34H21.1697L17.9357 18.6H21.3017L22.9737 28.786L25.5037 18.6H28.4957L31.0257 28.786L32.6977 18.6H36.0637Z" fill="white"/>
</svg>
